<svg width="15" height="15" viewBox="0 0 15 15" fill="none" xmlns="http://www.w3.org/2000/svg">
<path fill-rule="evenodd" clip-rule="evenodd" d="M7.5 15C11.6422 15 15 11.6422 15 7.5C15 5.97217 14.5432 4.55103 13.7586 3.36576L7.79583 9.99108C7.21867 10.6324 6.24733 10.7272 5.55703 10.2094L2.83333 8.16667C2.46514 7.8905 2.39052 7.36817 2.66667 7C2.94281 6.63183 3.46514 6.55717 3.83333 6.83333L6.557 8.87608L12.6783 2.07463C11.3322 0.789308 9.50825 0 7.5 0C3.35787 0 0 3.35787 0 7.5C0 11.6422 3.35787 15 7.5 15Z" fill="white"/>
</svg>
