<svg width="15" height="15" viewBox="0 0 15 15" fill="none" xmlns="http://www.w3.org/2000/svg">
<path d="M7.5 0C3.35742 0 0 3.35742 0 7.5C0 11.6426 3.35742 15 7.5 15C11.6426 15 15 11.6426 15 7.5C15 3.35742 11.6426 0 7.5 0ZM9.15527 6.22852L9.07031 7.35059H7.91894V11.2471H6.46582V7.35059H5.68945V6.22852H6.46582V5.47559C6.46582 5.14453 6.47461 4.63184 6.71484 4.3125C6.96973 3.97559 7.31836 3.74707 7.91894 3.74707C8.89746 3.74707 9.30762 3.8877 9.30762 3.8877L9.11426 5.03613C9.11426 5.03613 8.79199 4.94238 8.49023 4.94238C8.18848 4.94238 7.91894 5.05078 7.91894 5.35254V6.22852H9.15527Z" fill="#fff"/>
</svg>
