<svg width="15" height="15" viewBox="0 0 15 15" fill="none" xmlns="http://www.w3.org/2000/svg">
<g clip-path="url(#clip0_9_4)">
<path d="M8.00766 0.0153809C11.8135 0.0153809 14.9273 3.12924 14.9273 6.93506V8.0162C14.9273 11.822 11.8135 14.9359 8.00766 14.9359H6.92652C3.12069 14.9359 0.00683594 11.822 0.00683594 8.0162V6.93506C0.00683594 3.12924 3.12069 0.0153809 6.92652 0.0153809H8.00766ZM7.60311 3.7655L7.50684 3.76538C6.70516 3.76538 5.90349 3.79188 5.90349 3.79188C4.73256 3.79188 3.78333 4.74111 3.78333 5.91203C3.78333 5.91203 3.759 6.6004 3.75697 7.33927L3.75684 7.43588C3.75684 8.26316 3.78333 9.11873 3.78333 9.11873C3.78333 10.2897 4.73256 11.2389 5.90349 11.2389C5.90349 11.2389 6.65303 11.2654 7.42734 11.2654C8.25462 11.2654 9.1367 11.2389 9.1367 11.2389C10.3076 11.2389 11.2303 10.3162 11.2303 9.14525C11.2303 9.14525 11.2568 8.2993 11.2568 7.48889L11.2564 7.29871C11.2528 6.5716 11.2303 5.88551 11.2303 5.88551C11.2303 4.71459 10.3076 3.79188 9.13668 3.79188C9.13668 3.79188 8.37344 3.76746 7.60311 3.7655ZM7.50684 4.44036C8.16423 4.44036 9.0071 4.4621 9.0071 4.4621C9.96727 4.4621 10.5601 5.05493 10.5601 6.0151C10.5601 6.0151 10.5818 6.84358 10.5818 7.49362C10.5818 8.15816 10.5601 9.01562 10.5601 9.01562C10.5601 9.97578 9.96727 10.5686 9.0071 10.5686C9.0071 10.5686 8.26171 10.5869 7.61496 10.5899L7.44165 10.5903C6.80671 10.5903 6.03307 10.5686 6.03307 10.5686C5.07292 10.5686 4.45358 9.94925 4.45358 8.98912C4.45358 8.98912 4.43184 8.12854 4.43184 7.45017C4.43184 6.81523 4.45358 6.0151 4.45358 6.0151C4.45358 5.05493 5.07294 4.4621 6.03307 4.4621C6.03307 4.4621 6.84945 4.44036 7.50684 4.44036ZM7.50682 5.5944C6.4459 5.5944 5.58586 6.45444 5.58586 7.51536C5.58586 8.57627 6.4459 9.43631 7.50682 9.43631C8.56774 9.43631 9.42778 8.57627 9.42778 7.51536C9.42778 6.45444 8.56774 5.5944 7.50682 5.5944ZM7.50682 6.26535C8.19718 6.26535 8.75683 6.82499 8.75683 7.51536C8.75683 8.20572 8.19718 8.76536 7.50682 8.76536C6.81647 8.76536 6.25681 8.20572 6.25681 7.51536C6.25681 6.82499 6.81646 6.26535 7.50682 6.26535ZM9.51969 5.06133C9.26336 5.06133 9.05554 5.27017 9.05554 5.52778C9.05554 5.78539 9.26336 5.99421 9.51969 5.99421C9.77603 5.99421 9.98384 5.78539 9.98384 5.52778C9.98384 5.27015 9.77603 5.06133 9.51969 5.06133Z" fill="#fff"/>
</g>
<defs>
<clipPath id="clip0_9_4">
<rect width="15" height="15" fill="white"/>
</clipPath>
</defs>
</svg>
