<svg width="60" height="60" viewBox="0 0 67 68" fill="none" xmlns="http://www.w3.org/2000/svg">
<path d="M16.693 39.4091H8.78391V51H16.693V39.4091Z" fill="#FF9F9F"/>
<path d="M16.693 28.9772H8.78391V35.9318H16.693V28.9772Z" fill="#FF9F9F"/>
<path d="M19.7318 17.1086C19.6409 16.9675 17.4496 13.6515 12.7388 13.6515C8.02796 13.6515 5.83688 16.9675 5.74591 17.1087L5.30344 17.7953L8.3703 25.5H17.1077L20.1744 17.7953L19.7318 17.1086Z" fill="#FF9F9F"/>
<path d="M34.7244 22.0228H26.8153V28.9773H34.7244V22.0228Z" fill="#FF9F9F"/>
<path d="M34.7244 32.4545H26.8153V51H34.7244V32.4545Z" fill="#FF9F9F"/>
<path d="M43.8346 5.38488C43.6614 5.16505 39.4917 0 30.7744 0C22.0585 0 17.8797 5.16325 17.7059 5.38319L16.9383 6.35498L26.1807 18.5455H28.7923V11.0114H32.7468V18.5455H34.854L44.6222 6.38466L43.8346 5.38488Z" fill="#FF9F9F"/>
<path d="M52.7082 33.6136H44.7992V51H52.7082V33.6136Z" fill="#FF9F9F"/>
<path d="M52.7082 23.1818H44.7992V30.1363H52.7082V23.1818Z" fill="#FF9F9F"/>
<path d="M43.6014 13.5648L44.2996 19.7045H53.1619L54.6965 7.71118L43.6014 13.5648Z" fill="#FF9F9F"/>
<path d="M9.59484 63.832C9.6135 63.832 9.62284 63.86 9.62284 63.916C9.62284 63.972 9.6135 64 9.59484 64H7.56484C7.43417 64 7.3175 63.9627 7.21484 63.888C7.1215 63.8133 6.95817 63.622 6.72484 63.314C6.4915 63.006 6.09484 62.4507 5.53484 61.648L5.28284 61.284C4.9095 60.752 4.63417 60.3833 4.45684 60.178C4.28884 59.9633 4.1115 59.814 3.92484 59.73C3.73817 59.6367 3.49084 59.59 3.18284 59.59H3.12684V62.866C3.12684 63.146 3.15484 63.356 3.21084 63.496C3.26684 63.6267 3.3695 63.7153 3.51884 63.762C3.66817 63.8087 3.91084 63.832 4.24684 63.832C4.27484 63.832 4.28884 63.86 4.28884 63.916C4.28884 63.972 4.27484 64 4.24684 64C3.9295 64 3.6775 63.9953 3.49084 63.986L2.38484 63.972L1.37684 63.986C1.1995 63.9953 0.956836 64 0.648836 64C0.620836 64 0.606836 63.972 0.606836 63.916C0.606836 63.86 0.620836 63.832 0.648836 63.832C0.984836 63.832 1.2275 63.8087 1.37684 63.762C1.5355 63.7153 1.64284 63.6267 1.69884 63.496C1.75484 63.356 1.78284 63.146 1.78284 62.866V56.384C1.78284 56.104 1.75484 55.8987 1.69884 55.768C1.64284 55.6373 1.5355 55.5487 1.37684 55.502C1.2275 55.446 0.989503 55.418 0.662836 55.418C0.634836 55.418 0.620836 55.39 0.620836 55.334C0.620836 55.278 0.634836 55.25 0.662836 55.25L1.39084 55.264C1.8015 55.2827 2.13284 55.292 2.38484 55.292C2.6835 55.292 3.05684 55.2827 3.50484 55.264L4.24684 55.25C4.27484 55.25 4.28884 55.278 4.28884 55.334C4.28884 55.39 4.27484 55.418 4.24684 55.418C3.92017 55.418 3.6775 55.446 3.51884 55.502C3.3695 55.558 3.26684 55.656 3.21084 55.796C3.15484 55.9267 3.12684 56.132 3.12684 56.412V59.352C3.37884 59.3427 3.6915 59.338 4.06484 59.338H4.16284L5.70284 57.21C6.09484 56.6687 6.29084 56.2393 6.29084 55.922C6.29084 55.586 6.0855 55.418 5.67484 55.418C5.65617 55.418 5.64684 55.39 5.64684 55.334C5.64684 55.278 5.65617 55.25 5.67484 55.25L6.30484 55.264C6.69684 55.2827 7.0515 55.292 7.36884 55.292C7.71417 55.292 8.0735 55.2827 8.44684 55.264L9.02084 55.25C9.04884 55.25 9.06284 55.278 9.06284 55.334C9.06284 55.39 9.04884 55.418 9.02084 55.418C8.58217 55.418 8.1295 55.558 7.66284 55.838C7.19617 56.118 6.7715 56.5007 6.38884 56.986L4.51284 59.352C4.83017 59.38 5.09617 59.4547 5.31084 59.576C5.5255 59.6973 5.7355 59.884 5.94084 60.136C6.1555 60.3787 6.46817 60.7893 6.87884 61.368C7.36417 62.04 7.7235 62.5253 7.95684 62.824C8.1995 63.1227 8.4515 63.3653 8.71284 63.552C8.9835 63.7293 9.2775 63.8227 9.59484 63.832ZM12.5429 64.182C11.9829 64.182 11.4883 64.0513 11.0589 63.79C10.6296 63.5193 10.2983 63.16 10.0649 62.712C9.8316 62.2547 9.71493 61.76 9.71493 61.228C9.71493 60.6213 9.86426 60.108 10.1629 59.688C10.4709 59.2587 10.8583 58.9413 11.3249 58.736C11.8009 58.5213 12.2863 58.414 12.7809 58.414C13.3503 58.414 13.8449 58.5493 14.2649 58.82C14.6943 59.0907 15.0209 59.45 15.2449 59.898C15.4689 60.3367 15.5809 60.808 15.5809 61.312C15.5809 61.872 15.4409 62.3713 15.1609 62.81C14.8903 63.2487 14.5216 63.5893 14.0549 63.832C13.5883 64.0653 13.0843 64.182 12.5429 64.182ZM12.9629 63.902C13.3736 63.902 13.6863 63.72 13.9009 63.356C14.1249 62.992 14.2369 62.46 14.2369 61.76C14.2369 61.1347 14.1483 60.5887 13.9709 60.122C13.8029 59.6553 13.5696 59.3007 13.2709 59.058C12.9816 58.8153 12.6643 58.694 12.3189 58.694C11.8989 58.694 11.5816 58.8667 11.3669 59.212C11.1523 59.5573 11.0449 60.066 11.0449 60.738C11.0449 61.3447 11.1243 61.8907 11.2829 62.376C11.4509 62.852 11.6796 63.2253 11.9689 63.496C12.2676 63.7667 12.5989 63.902 12.9629 63.902ZM19.3235 64.168C18.7169 64.168 18.1989 64.0373 17.7695 63.776C17.3495 63.5053 17.0369 63.16 16.8315 62.74C16.6262 62.3107 16.5235 61.8627 16.5235 61.396C16.5235 60.808 16.6822 60.2947 16.9995 59.856C17.3169 59.408 17.7229 59.0673 18.2175 58.834C18.7215 58.5913 19.2302 58.47 19.7435 58.47C20.1822 58.47 20.5789 58.5587 20.9335 58.736C21.2882 58.9133 21.4655 59.1513 21.4655 59.45C21.4655 59.6087 21.4049 59.7487 21.2835 59.87C21.1622 59.982 20.9942 60.038 20.7795 60.038C20.4249 60.038 20.1682 59.828 20.0095 59.408C19.9162 59.1747 19.8182 59.0113 19.7155 58.918C19.6129 58.8153 19.4495 58.764 19.2255 58.764C18.7869 58.764 18.4369 58.9647 18.1755 59.366C17.9235 59.758 17.7975 60.2853 17.7975 60.948C17.7975 61.7227 17.9749 62.3527 18.3295 62.838C18.6935 63.314 19.2582 63.552 20.0235 63.552C20.2849 63.552 20.5182 63.5193 20.7235 63.454C20.9289 63.3887 21.1529 63.286 21.3955 63.146H21.4095C21.4375 63.146 21.4609 63.16 21.4795 63.188C21.5075 63.216 21.5122 63.2393 21.4935 63.258C21.1482 63.566 20.8075 63.7947 20.4715 63.944C20.1355 64.0933 19.7529 64.168 19.3235 64.168ZM29.6824 63.832C29.7011 63.832 29.7104 63.86 29.7104 63.916C29.7104 63.972 29.7011 64 29.6824 64C29.4118 64 29.2018 63.9953 29.0524 63.986L28.3244 63.972L27.5964 63.986C27.4844 63.9953 27.3211 64 27.1064 64C27.0784 64 27.0644 63.972 27.0644 63.916C27.0644 63.86 27.0784 63.832 27.1064 63.832C27.3491 63.832 27.5171 63.7947 27.6104 63.72C27.7131 63.6453 27.7644 63.4867 27.7644 63.244C27.7644 63.188 27.7551 63.076 27.7364 62.908L27.4284 60.43L25.7624 64C25.7531 64.0373 25.7158 64.056 25.6504 64.056C25.6038 64.056 25.5664 64.0373 25.5384 64L23.5224 60.402L23.3264 62.544L23.3124 62.768C23.3124 63.132 23.3871 63.4027 23.5364 63.58C23.6951 63.748 23.9331 63.832 24.2504 63.832C24.2784 63.832 24.2924 63.86 24.2924 63.916C24.2924 63.972 24.2784 64 24.2504 64C24.0451 64 23.8864 63.9953 23.7744 63.986L23.1724 63.972L22.5844 63.986C22.4724 63.9953 22.3138 64 22.1084 64C22.0804 64 22.0664 63.972 22.0664 63.916C22.0664 63.86 22.0804 63.832 22.1084 63.832C22.4071 63.832 22.6264 63.7293 22.7664 63.524C22.9158 63.3187 23.0044 62.992 23.0324 62.544L23.3404 58.54C23.3404 58.512 23.3638 58.4887 23.4104 58.47C23.4571 58.4513 23.5084 58.442 23.5644 58.442C23.6578 58.442 23.7184 58.4607 23.7464 58.498L26.0844 62.628L28.0024 58.512C28.0211 58.484 28.0631 58.47 28.1284 58.47C28.1751 58.47 28.2218 58.4793 28.2684 58.498C28.3244 58.5167 28.3571 58.5353 28.3664 58.554L28.8564 62.866C28.8938 63.174 28.9311 63.3887 28.9684 63.51C29.0058 63.6313 29.0758 63.7153 29.1784 63.762C29.2811 63.8087 29.4491 63.832 29.6824 63.832ZM35.1764 63.118C35.1951 63.118 35.2138 63.1367 35.2324 63.174C35.2604 63.2113 35.2651 63.2393 35.2464 63.258C34.9104 63.5753 34.5698 63.8087 34.2244 63.958C33.8791 64.098 33.5011 64.168 33.0904 64.168C32.5118 64.168 32.0124 64.0467 31.5924 63.804C31.1818 63.552 30.8644 63.2207 30.6404 62.81C30.4258 62.39 30.3184 61.942 30.3184 61.466C30.3184 60.9153 30.4538 60.4113 30.7244 59.954C31.0044 59.4967 31.3824 59.1373 31.8584 58.876C32.3438 58.6053 32.8758 58.47 33.4544 58.47C34.0051 58.47 34.4298 58.596 34.7284 58.848C35.0271 59.0907 35.1764 59.4267 35.1764 59.856C35.1764 60.108 35.1251 60.234 35.0224 60.234H34.2524L31.6204 60.262C31.5924 60.458 31.5784 60.668 31.5784 60.892C31.5784 61.704 31.7651 62.3527 32.1384 62.838C32.5211 63.314 33.0484 63.552 33.7204 63.552C33.9631 63.552 34.2104 63.5193 34.4624 63.454C34.7144 63.3793 34.9431 63.272 35.1484 63.132L35.1764 63.118ZM32.9504 58.75C32.6424 58.75 32.3764 58.862 32.1524 59.086C31.9284 59.31 31.7698 59.618 31.6764 60.01L33.8604 59.968C33.8418 59.5853 33.7578 59.2867 33.6084 59.072C33.4591 58.8573 33.2398 58.75 32.9504 58.75ZM46.209 63.832C46.2463 63.832 46.265 63.86 46.265 63.916C46.265 63.972 46.2463 64 46.209 64C45.9757 64 45.789 63.9953 45.649 63.986L44.851 63.972L44.053 63.986C43.913 63.9953 43.7263 64 43.493 64C43.465 64 43.451 63.972 43.451 63.916C43.451 63.86 43.465 63.832 43.493 63.832C43.801 63.832 44.011 63.7667 44.123 63.636C44.235 63.496 44.291 63.2393 44.291 62.866V60.78C44.291 60.2573 44.1977 59.87 44.011 59.618C43.8337 59.366 43.5583 59.24 43.185 59.24C42.933 59.24 42.681 59.3007 42.429 59.422C42.177 59.5433 41.9577 59.7067 41.771 59.912V60.052V62.866C41.771 63.2487 41.8223 63.5053 41.925 63.636C42.037 63.7667 42.2517 63.832 42.569 63.832C42.597 63.832 42.611 63.86 42.611 63.916C42.611 63.972 42.597 64 42.569 64C42.3357 64 42.149 63.9953 42.009 63.986L41.197 63.972L40.399 63.986C40.259 63.9953 40.0723 64 39.839 64C39.811 64 39.797 63.972 39.797 63.916C39.797 63.86 39.811 63.832 39.839 63.832C40.1563 63.832 40.3663 63.7667 40.469 63.636C40.581 63.5053 40.637 63.2487 40.637 62.866V60.78C40.637 60.2573 40.5437 59.87 40.357 59.618C40.1797 59.366 39.9043 59.24 39.531 59.24C39.2977 59.24 39.0597 59.296 38.817 59.408C38.5743 59.52 38.3597 59.6693 38.173 59.856V62.866C38.173 63.2487 38.2243 63.5053 38.327 63.636C38.4297 63.7667 38.6397 63.832 38.957 63.832C38.985 63.832 38.999 63.86 38.999 63.916C38.999 63.972 38.985 64 38.957 64C38.7237 64 38.5417 63.9953 38.411 63.986L37.599 63.972L36.787 63.986C36.6563 63.9953 36.4743 64 36.241 64C36.213 64 36.199 63.972 36.199 63.916C36.199 63.86 36.213 63.832 36.241 63.832C36.5583 63.832 36.7683 63.7667 36.871 63.636C36.9737 63.5053 37.025 63.2487 37.025 62.866V60.192C37.025 59.8933 36.9877 59.674 36.913 59.534C36.8477 59.394 36.7357 59.324 36.577 59.324C36.437 59.324 36.2037 59.394 35.877 59.534H35.863C35.8257 59.534 35.7977 59.5107 35.779 59.464C35.7603 59.4173 35.765 59.3893 35.793 59.38L37.627 58.484C37.683 58.4653 37.7157 58.456 37.725 58.456C37.8183 58.456 37.9117 58.5633 38.005 58.778C38.1077 58.9833 38.1637 59.254 38.173 59.59C38.7983 58.8247 39.4797 58.442 40.217 58.442C40.6463 58.442 40.9917 58.5493 41.253 58.764C41.5143 58.9693 41.6777 59.2727 41.743 59.674C42.4057 58.8527 43.115 58.442 43.871 58.442C44.3657 58.442 44.7437 58.5867 45.005 58.876C45.2757 59.156 45.411 59.5853 45.411 60.164V62.866C45.411 63.2487 45.4623 63.5053 45.565 63.636C45.677 63.7667 45.8917 63.832 46.209 63.832ZM53.4114 63.118C53.4394 63.118 53.4628 63.1413 53.4814 63.188C53.5001 63.2347 53.4954 63.2673 53.4674 63.286L51.6334 64.168L51.5774 64.182C51.4841 64.182 51.4001 64.0793 51.3254 63.874C51.2508 63.6593 51.2088 63.3747 51.1994 63.02C50.5461 63.776 49.8554 64.154 49.1274 64.154C48.6234 64.154 48.2314 64 47.9514 63.692C47.6714 63.3747 47.5314 62.9453 47.5314 62.404V60.318C47.5314 59.6833 47.3868 59.366 47.0974 59.366C47.0041 59.366 46.8734 59.4033 46.7054 59.478H46.6914C46.6541 59.478 46.6261 59.4547 46.6074 59.408C46.5888 59.3613 46.5934 59.3287 46.6214 59.31L48.3994 58.484L48.4554 58.47C48.4928 58.47 48.5348 58.4887 48.5814 58.526C48.6281 58.5633 48.6514 58.596 48.6514 58.624V61.802C48.6514 62.838 49.0434 63.356 49.8274 63.356C50.0608 63.356 50.2988 63.3 50.5414 63.188C50.7841 63.076 51.0034 62.922 51.1994 62.726V60.318C51.1994 59.9913 51.1621 59.7533 51.0874 59.604C51.0221 59.4453 50.9148 59.366 50.7654 59.366C50.6814 59.366 50.5508 59.4033 50.3734 59.478H50.3594C50.3221 59.478 50.2941 59.4547 50.2754 59.408C50.2568 59.352 50.2661 59.3193 50.3034 59.31L52.0674 58.484C52.0861 58.4747 52.1094 58.47 52.1374 58.47C52.1748 58.47 52.2168 58.4887 52.2634 58.526C52.3101 58.5633 52.3334 58.596 52.3334 58.624V62.418C52.3334 62.7447 52.3661 62.9733 52.4314 63.104C52.4968 63.2347 52.6041 63.3 52.7534 63.3C52.8654 63.3 53.0754 63.244 53.3834 63.132L53.4114 63.118ZM60.0751 63.832C60.1031 63.832 60.1171 63.86 60.1171 63.916C60.1171 63.972 60.1031 64 60.0751 64H58.4511C58.3671 64 58.3065 63.986 58.2691 63.958C58.2318 63.93 58.1291 63.8087 57.9611 63.594C57.8025 63.37 57.5831 63.0573 57.3031 62.656C57.2378 62.544 57.1678 62.446 57.0931 62.362C56.8505 62.0167 56.6731 61.7833 56.5611 61.662C56.4585 61.5313 56.3465 61.4427 56.2251 61.396C56.1038 61.34 55.9405 61.3167 55.7351 61.326V62.866C55.7351 63.146 55.7538 63.3513 55.7911 63.482C55.8378 63.6127 55.9171 63.706 56.0291 63.762C56.1411 63.8087 56.3091 63.832 56.5331 63.832C56.5611 63.832 56.5751 63.86 56.5751 63.916C56.5751 63.972 56.5611 64 56.5331 64C56.2811 64 56.0851 63.9953 55.9451 63.986L55.1891 63.972L54.4051 63.986C54.2651 63.9953 54.0645 64 53.8031 64C53.7751 64 53.7611 63.972 53.7611 63.916C53.7611 63.86 53.7751 63.832 53.8031 63.832C54.0365 63.832 54.2091 63.8087 54.3211 63.762C54.4331 63.7153 54.5078 63.6267 54.5451 63.496C54.5918 63.356 54.6151 63.146 54.6151 62.866V55.712C54.6151 55.3853 54.5825 55.152 54.5171 55.012C54.4518 54.8627 54.3445 54.788 54.1951 54.788C54.0551 54.788 53.8638 54.844 53.6211 54.956H53.6071C53.5791 54.956 53.5511 54.9327 53.5231 54.886C53.5045 54.83 53.5091 54.7973 53.5371 54.788L55.4831 53.864L55.5531 53.85C55.5905 53.85 55.6278 53.8687 55.6651 53.906C55.7118 53.9433 55.7351 53.976 55.7351 54.004V61.074C55.9685 61.0553 56.2158 61.046 56.4771 61.046C56.6731 61.046 56.8925 60.8033 57.1351 60.318C57.4805 59.6087 57.7791 59.1233 58.0311 58.862C58.2831 58.5913 58.5631 58.456 58.8711 58.456C59.1231 58.456 59.3098 58.5167 59.4311 58.638C59.5618 58.75 59.6271 58.8993 59.6271 59.086C59.6271 59.2727 59.5665 59.4267 59.4451 59.548C59.3331 59.6693 59.1745 59.73 58.9691 59.73C58.8478 59.73 58.7125 59.6927 58.5631 59.618C58.5445 59.6087 58.5025 59.59 58.4371 59.562C58.3718 59.534 58.2971 59.52 58.2131 59.52C58.0825 59.52 57.9518 59.59 57.8211 59.73C57.6998 59.87 57.5598 60.0987 57.4011 60.416C57.2798 60.668 57.1351 60.8873 56.9671 61.074C57.2378 61.1113 57.4571 61.2093 57.6251 61.368C57.7931 61.5267 58.0731 61.8627 58.4651 62.376C58.5585 62.488 58.6938 62.6793 58.8711 62.95C59.0951 63.2673 59.2818 63.4913 59.4311 63.622C59.5898 63.7527 59.8045 63.8227 60.0751 63.832ZM66.6419 63.118C66.6792 63.118 66.7072 63.1413 66.7259 63.188C66.7539 63.2253 66.7539 63.2533 66.7259 63.272L64.8919 64.154C64.8732 64.1633 64.8499 64.168 64.8219 64.168C64.7379 64.168 64.6585 64.0747 64.5839 63.888C64.5185 63.7013 64.4765 63.4587 64.4579 63.16C64.1405 63.468 63.8185 63.7153 63.4919 63.902C63.1652 64.0793 62.8059 64.168 62.4139 64.168C62.0405 64.168 61.6952 64.0747 61.3779 63.888C61.0605 63.692 60.8085 63.412 60.6219 63.048C60.4352 62.6747 60.3419 62.2313 60.3419 61.718C60.3419 61.0553 60.4959 60.4767 60.8039 59.982C61.1212 59.478 61.5272 59.0953 62.0219 58.834C62.5259 58.5633 63.0485 58.428 63.5899 58.428C64.1125 58.428 64.5652 58.554 64.9479 58.806C65.1439 58.7127 65.3072 58.5913 65.4379 58.442C65.4472 58.4327 65.4612 58.428 65.4799 58.428C65.4985 58.428 65.5172 58.4373 65.5359 58.456C65.5639 58.4653 65.5779 58.4793 65.5779 58.498V62.488C65.5779 62.7773 65.6105 62.9827 65.6759 63.104C65.7412 63.2253 65.8485 63.286 65.9979 63.286C66.1565 63.286 66.3665 63.23 66.6279 63.118H66.6419ZM63.0579 63.524C63.4685 63.524 63.9305 63.3233 64.4439 62.922V62.866V59.94C64.4439 59.5853 64.3272 59.2913 64.0939 59.058C63.8605 58.8247 63.5712 58.708 63.2259 58.708C62.7405 58.708 62.3485 58.946 62.0499 59.422C61.7605 59.898 61.6159 60.514 61.6159 61.27C61.6159 61.97 61.7419 62.5207 61.9939 62.922C62.2552 63.3233 62.6099 63.524 63.0579 63.524Z" fill="#FF9F9F"/>
</svg>
