<svg width="15" height="15" viewBox="0 0 15 15" fill="none" xmlns="http://www.w3.org/2000/svg">
<path d="M10.5662 4.48954C10.5692 4.48954 10.5732 4.48954 10.5772 4.48954C10.6813 4.48954 10.7779 4.52191 10.8571 4.57769L10.8556 4.57669C10.9133 4.62699 10.9522 4.69771 10.9617 4.77739V4.77888C10.9716 4.83964 10.9771 4.90936 10.9771 4.98058C10.9771 5.01295 10.9761 5.04482 10.9736 5.07669V5.07221C10.8616 6.25199 10.3755 9.11305 10.1285 10.4338C10.0239 10.993 9.81823 11.1803 9.61902 11.1982C9.18625 11.2385 8.85757 10.9124 8.43825 10.6375C7.78187 10.2067 7.41086 9.93874 6.7739 9.51892C6.03735 9.03436 6.51494 8.76693 6.93426 8.33167C7.04432 8.21713 8.95219 6.48157 8.98954 6.3242C8.99153 6.31474 8.99253 6.30428 8.99253 6.29333C8.99253 6.25448 8.97809 6.21912 8.95468 6.19223C8.92878 6.1753 8.89641 6.16584 8.86255 6.16584C8.84014 6.16584 8.81872 6.17032 8.7988 6.17779L8.7998 6.17729C8.73406 6.19223 7.68559 6.88513 5.65438 8.25598C5.43277 8.43078 5.15289 8.54133 4.84811 8.55428H4.84512C4.41335 8.50199 4.02141 8.40588 3.6494 8.26892L3.68626 8.28088C3.21912 8.12849 2.84811 8.04831 2.87998 7.79034C2.89691 7.65621 3.08184 7.51892 3.43476 7.37849C5.60873 6.43127 7.05843 5.80694 7.78386 5.50548C8.58416 5.08068 9.51195 4.73108 10.4875 4.50448L10.5657 4.48904L10.5662 4.48954ZM7.48257 0C3.34811 0.00996016 0 3.36404 0 7.5C0 11.6419 3.35757 15 7.5 15C11.6424 15 15 11.6424 15 7.5C15 3.36404 11.6519 0.00996016 7.51843 0H7.51743C7.50581 0 7.49419 0 7.48257 0Z" fill="#fff"/>
</svg>
