<svg width="15" height="15" viewBox="0 0 15 15" fill="none" xmlns="http://www.w3.org/2000/svg">
<g clip-path="url(#clip0_13_15)">
<path d="M7.53103 0.00146484C3.4379 0.00146484 0.107728 3.32495 0.107728 7.41013C0.107728 8.67647 0.448005 9.9396 1.0926 11.0699L0 14.9985L3.99957 13.9203C5.16563 14.5575 6.38459 14.8938 7.53103 14.8938C11.5798 14.8938 15 11.4665 15 7.41013C15 3.32495 11.6495 0.00146484 7.53103 0.00146484ZM7.53103 13.6527C6.44686 13.6527 5.33318 13.3226 4.3096 12.6982L4.18052 12.619L1.74042 13.2472L2.40512 10.8865L2.318 10.7508C1.68382 9.76362 1.34875 8.60848 1.34875 7.41013C1.34875 4.00923 4.12218 1.24248 7.53103 1.24248C10.9652 1.24248 13.759 4.00923 13.759 7.41013C13.759 10.8522 10.9652 13.6527 7.53103 13.6527Z" fill="#fff"/>
<path d="M7.53097 1.73877C4.39565 1.73877 1.84509 4.28287 1.84509 7.41024C1.84509 8.51302 2.15287 9.57557 2.73566 10.4825L2.94367 10.8059L2.45198 12.5513L4.25991 12.0859L4.56867 12.2746C5.51359 12.8514 6.53817 13.1562 7.531 13.1562C10.6914 13.1562 13.2625 10.5786 13.2625 7.41027C13.2625 4.28288 10.6914 1.73877 7.53097 1.73877ZM11.5142 9.28843L11.4399 9.63492C11.3421 10.0929 11.0644 10.4969 10.679 10.7436C10.3228 10.9712 9.93408 11.0854 9.51709 11.0854C9.28676 11.0854 9.04774 11.0507 8.80103 10.9809C6.32692 10.2812 5.03228 8.51624 4.60687 7.9362C3.91313 6.9903 3.63194 6.0193 3.81534 5.20222C3.94317 4.63383 4.35593 4.20691 4.59049 4.00313C4.74985 3.86438 4.95635 3.79563 5.16607 3.80607L5.63045 3.83138C5.81734 3.84155 5.97919 3.95499 6.05314 4.12724L6.73 5.71004C6.80272 5.88082 6.77146 6.08161 6.65007 6.22183L6.09312 6.86643C6.80325 8.19681 8.0532 8.75849 8.4955 8.92157L9.07953 8.16431C9.22002 7.98286 9.46351 7.92331 9.67125 8.01885L11.2409 8.74237C11.4499 8.83869 11.5623 9.06331 11.5142 9.28843Z" fill="#fff"/>
</g>
<defs>
<clipPath id="clip0_13_15">
<rect width="15" height="15" fill="white"/>
</clipPath>
</defs>
</svg>
